<?xml version="1.0" encoding="UTF-8"?>
<svg xmlns="http://www.w3.org/2000/svg" width="29" height="37" viewBox="0 0 29 37" fill="none">
  <path d="M14.5 36.7812C14.2707 36.7811 14.0449 36.725 13.8422 36.6178C13.6395 36.5106 13.466 36.3555 13.3369 36.166L2.60384 20.3814C2.49822 20.2253 2.4247 20.0498 2.38756 19.865C1.4223 17.9932 0.914728 15.9191 0.906494 13.813C0.906494 10.2077 2.33866 6.75018 4.88794 4.2009C7.43722 1.65162 10.8948 0.219452 14.5 0.219452C18.1052 0.219452 21.5628 1.65162 24.1121 4.2009C26.6614 6.75018 28.0935 10.2077 28.0935 13.813C28.085 15.8798 27.5959 17.9163 26.6646 19.7614C26.6345 19.946 26.5644 20.1217 26.4593 20.2764L15.6631 36.1646C15.5344 36.3546 15.361 36.5101 15.1583 36.6176C14.9555 36.7251 14.7295 36.7813 14.5 36.7812ZM5.16645 19.1469L14.5 32.8729L23.8905 19.0535C23.9144 18.9751 23.9457 18.8992 23.984 18.8268C24.8233 17.2881 25.2691 15.5657 25.2817 13.813C25.2817 10.9537 24.1459 8.21147 22.124 6.18964C20.1022 4.16781 17.36 3.03195 14.5007 3.03195C11.6414 3.03195 8.89922 4.16781 6.87738 6.18964C4.85555 8.21147 3.7197 10.9537 3.7197 13.813C3.73239 15.6013 4.19625 17.3575 5.06829 18.9189C5.10745 18.992 5.14029 19.0682 5.16645 19.1469Z" fill="white"></path>
  <path d="M14.5001 18.5C14.1271 18.5 13.7694 18.3518 13.5057 18.0881C13.242 17.8244 13.0938 17.4667 13.0938 17.0938C13.0938 16.7208 13.242 16.3631 13.5057 16.0994C13.7694 15.8357 14.1271 15.6875 14.5001 15.6875C15.0563 15.6875 15.6001 15.5226 16.0626 15.2135C16.5251 14.9045 16.8856 14.4652 17.0985 13.9513C17.3114 13.4374 17.3671 12.8719 17.2585 12.3263C17.15 11.7807 16.8822 11.2796 16.4888 10.8863C16.0955 10.4929 15.5943 10.2251 15.0488 10.1165C14.5032 10.008 13.9377 10.0637 13.4238 10.2766C12.9099 10.4895 12.4706 10.85 12.1616 11.3125C11.8525 11.775 11.6876 12.3187 11.6876 12.875C11.686 13.3389 11.8002 13.7958 12.0199 14.2043C12.113 14.3674 12.1726 14.5475 12.195 14.734C12.2175 14.9204 12.2023 15.1095 12.1505 15.29C12.0986 15.4706 12.0112 15.6389 11.8932 15.785C11.7753 15.9312 11.6292 16.0522 11.4637 16.141C11.2982 16.2298 11.1166 16.2846 10.9296 16.3021C10.7426 16.3195 10.554 16.2994 10.375 16.2427C10.1959 16.1861 10.0299 16.0942 9.88697 15.9724C9.744 15.8507 9.62686 15.7015 9.54249 15.5337C8.9608 14.4491 8.75085 13.2037 8.94483 11.9884C9.13881 10.7731 9.72601 9.65494 10.6164 8.80535C11.5068 7.95577 12.6513 7.42164 13.8743 7.28486C15.0974 7.14807 16.3316 7.41618 17.3877 8.04809C18.4438 8.67999 19.2635 9.6408 19.7211 10.7832C20.1788 11.9257 20.2491 13.1867 19.9214 14.3729C19.5937 15.5592 18.8859 16.6052 17.9067 17.3507C16.9275 18.0961 15.7308 18.4999 14.5001 18.5Z" fill="white"></path>
</svg>
