<?xml version="1.0" encoding="UTF-8"?>
<svg xmlns="http://www.w3.org/2000/svg" width="24" height="25" viewBox="0 0 24 25" fill="none">
  <path d="M2.91231 0.55127C1.33854 0.55127 0.0647077 1.82585 0.0644531 3.39414C0.0644531 4.96397 1.33829 6.23829 2.91257 6.23829C4.48252 6.23829 5.75813 4.96397 5.75813 3.39414C5.75813 1.82559 4.48226 0.55127 2.91231 0.55127Z" fill="white"></path>
  <path d="M0.456055 8.39551H5.3668V24.1761H0.456055V8.39551Z" fill="white"></path>
  <path d="M17.8683 8.00293C15.4795 8.00293 13.8777 9.31107 13.2221 10.5516H13.1564V8.39532H8.44654H8.44629V24.1757H13.3527V16.369C13.3527 14.311 13.7451 12.3175 16.2999 12.3175C18.818 12.3175 18.8516 14.6713 18.8516 16.501V24.1754H23.7588V15.5199C23.7588 11.2713 22.8409 8.00293 17.8683 8.00293Z" fill="white"></path>
</svg>
