<?xml version="1.0" encoding="UTF-8"?>
<svg xmlns="http://www.w3.org/2000/svg" width="41" height="29" viewBox="0 0 41 29" fill="none">
  <path d="M10.25 2.05C10.25 0.917855 11.1679 0 12.3 0H38.95C40.0821 0 41 0.917855 41 2.05C41 3.18214 40.0821 4.1 38.95 4.1H12.3C11.1679 4.1 10.25 3.18206 10.25 2.05ZM38.95 12.3H2.05C0.917856 12.3 0 13.2179 0 14.35C0 15.4821 0.917856 16.4 2.05 16.4H38.95C40.0821 16.4 41 15.4821 41 14.35C41 13.2179 40.0821 12.3 38.95 12.3ZM38.95 24.6H20.5C19.3679 24.6 18.45 25.5179 18.45 26.65C18.45 27.7821 19.3679 28.7 20.5 28.7H38.95C40.0821 28.7 41 27.7821 41 26.65C41 25.5179 40.0821 24.6 38.95 24.6Z" fill="white"></path>
</svg>
