<?xml version="1.0" encoding="UTF-8"?>
<svg xmlns="http://www.w3.org/2000/svg" width="42" height="42" viewBox="0 0 42 42" fill="none">
  <path d="M4.97908 0C2.24335 0 0.0290071 2.21563 0.0285645 4.94185C0.0285645 7.67071 2.24291 9.8859 4.97952 9.8859C7.70861 9.8859 9.92605 7.67071 9.92605 4.94185C9.92605 2.21519 7.70817 0 4.97908 0Z" fill="white"></path>
  <path d="M0.709229 13.6359H9.24571V41.0678H0.709229V13.6359Z" fill="white"></path>
  <path d="M30.9776 12.9536C26.8251 12.9536 24.0407 15.2276 22.901 17.384H22.7868V13.6357H14.5996H14.5991V41.0672H23.1281V27.4967C23.1281 23.919 23.8101 20.4537 28.2512 20.4537C32.6285 20.4537 32.687 24.5454 32.687 27.7261V41.0667H41.2173V26.0206C41.2173 18.635 39.6217 12.9536 30.9776 12.9536Z" fill="white"></path>
</svg>
