<?xml version="1.0" encoding="UTF-8"?>
<svg xmlns="http://www.w3.org/2000/svg" width="40" height="74" viewBox="0 0 40 74" fill="none">
  <path d="M39.1417 25.264C39.1487 25.2527 39.153 25.2408 39.1591 25.2292C39.168 25.2133 39.1772 25.1974 39.1839 25.1809C39.1866 25.1747 39.1879 25.1683 39.1903 25.1622C39.1925 25.1567 39.1931 25.1509 39.1949 25.1451C39.197 25.1399 39.1983 25.135 39.1995 25.1298C39.2035 25.1166 39.2077 25.1038 39.2102 25.09C39.2136 25.0723 39.2142 25.0546 39.2157 25.0371C39.2169 25.0234 39.2187 25.0096 39.2187 24.9956C39.2187 24.9794 39.2163 24.9635 39.2142 24.9476C39.2123 24.932 39.2117 24.9164 39.2084 24.9011C39.205 24.8861 39.2001 24.872 39.1955 24.8574C39.1931 24.8497 39.1909 24.8424 39.1888 24.835C39.186 24.8268 39.1842 24.8185 39.1805 24.8103C39.1723 24.791 39.1613 24.773 39.1506 24.7546C39.1454 24.7458 39.1423 24.736 39.1365 24.7277C39.1365 24.7277 39.1353 24.7265 39.1344 24.7259C39.1307 24.7195 39.1249 24.7137 39.12 24.7072C39.1178 24.7048 39.1172 24.7017 39.1151 24.6993L19.9953 0.187125C19.992 0.182539 19.9871 0.179787 19.9837 0.1752C19.9736 0.163582 19.9641 0.151962 19.9531 0.141567C19.943 0.131477 19.9323 0.122304 19.9207 0.113131C19.9189 0.111602 19.9167 0.109768 19.9149 0.107933C19.9036 0.0987604 19.8926 0.0898933 19.8807 0.0819435C19.8678 0.0739938 19.8553 0.0669613 19.8418 0.0596231C19.8265 0.0513676 19.8109 0.0434179 19.7954 0.0366912C19.7895 0.0342451 19.7847 0.0305758 19.7782 0.0284355C19.77 0.0253779 19.7614 0.0244607 19.7525 0.0220146C19.7366 0.0168167 19.7201 0.0125361 19.7036 0.00917272C19.6874 0.00611512 19.6721 0.0039747 19.6572 0.0024459C19.6413 0.000917103 19.626 0 19.6095 0C19.5936 0 19.5773 0.000917103 19.5611 0.0024459C19.5459 0.0039747 19.5312 0.00611499 19.5159 0.00886683C19.4988 0.0122302 19.4826 0.0165108 19.4657 0.0217087C19.4575 0.0241548 19.4492 0.0250723 19.441 0.0281299C19.4352 0.0302702 19.4303 0.0339394 19.4245 0.0360797C19.4076 0.0428064 19.3921 0.0507559 19.3768 0.0593172C19.3639 0.0663497 19.3511 0.0730766 19.3392 0.0813321C19.3263 0.0895876 19.3147 0.0987604 19.3034 0.107933C19.3016 0.109462 19.3003 0.110991 19.2982 0.11252C19.2869 0.121692 19.2759 0.130865 19.2658 0.140955C19.2551 0.151963 19.245 0.164193 19.2346 0.176117C19.2312 0.179787 19.2276 0.182233 19.2245 0.185902L0.103194 24.6981C-0.034398 24.8751 -0.034398 25.1231 0.103194 25.2998L19.2245 49.812C19.2276 49.8159 19.2312 49.8184 19.2346 49.822L19.2358 49.8233C19.2392 49.8276 19.2416 49.8324 19.2453 49.8367C19.2581 49.8505 19.2728 49.8624 19.2869 49.8749C19.2942 49.882 19.3022 49.8896 19.3104 49.896C19.3193 49.9028 19.3291 49.9092 19.3385 49.9156C19.348 49.922 19.3581 49.9275 19.3685 49.9333C19.3703 49.9343 19.3716 49.9352 19.3737 49.9361C19.3826 49.9413 19.3914 49.9477 19.4009 49.9523C19.4031 49.9532 19.4043 49.9544 19.4064 49.9554C19.4211 49.9621 19.4364 49.9651 19.4511 49.9703C19.4633 49.9743 19.474 49.9789 19.4859 49.9823C19.492 49.9838 19.4966 49.9862 19.5027 49.9875C19.5382 49.9954 19.5746 50 19.6104 50H19.611C19.6461 50 19.6816 49.9954 19.7174 49.9875C19.7238 49.9862 19.7296 49.9835 19.736 49.982C19.747 49.9789 19.7577 49.9743 19.7684 49.9706C19.7831 49.9654 19.7987 49.9624 19.8131 49.956C19.8152 49.9547 19.8171 49.9532 19.8195 49.952C19.8302 49.9468 19.8403 49.9398 19.8513 49.9336L19.8534 49.9324C19.8623 49.9269 19.8721 49.9223 19.8807 49.9162C19.8901 49.9098 19.8999 49.9037 19.9088 49.897C19.9189 49.889 19.9281 49.8801 19.9375 49.8716C19.9504 49.8603 19.9632 49.8496 19.9745 49.8373C19.9785 49.8334 19.9809 49.8285 19.984 49.8245L19.9846 49.8242C19.9886 49.8196 19.9935 49.8162 19.9969 49.8113L39.1166 25.2995C39.1194 25.2964 39.12 25.2925 39.1227 25.2891C39.1292 25.2808 39.1359 25.2732 39.142 25.2646C39.1405 25.2652 39.1411 25.2649 39.1417 25.264ZM20.4628 24.4201C20.4081 23.0182 20.4108 20.212 20.919 19.1384C21.2385 18.4746 22.0736 18.0206 23.041 17.495C24.0051 16.9709 25.0715 16.3912 25.9466 15.4519C25.7613 17.107 25.1147 20.1869 24.5447 21.2613C24.0148 22.0725 22.5126 23.2319 20.4628 24.4201ZM23.0985 24.8885C24.1216 24.347 25.2532 23.7478 26.175 22.7638C25.9751 24.4868 25.2764 27.7633 24.7031 28.8075C24.1848 29.6642 22.6224 30.8882 20.4677 32.1366C20.4139 30.7105 20.3919 27.7015 20.9193 26.5335C21.2361 25.8746 22.0993 25.4178 23.0985 24.8885ZM19.1196 17.5916C18.1617 17.01 16.5038 15.6439 16.8414 13.2914C16.8432 13.2804 16.8448 13.2697 16.8454 13.2587C16.9276 12.1717 18.1641 9.1254 19.1196 7.39541V17.5916ZM20.0981 17.5665V7.50793C21.0205 9.27706 22.2375 12.2335 22.3197 13.2911C22.6432 15.5561 21.0545 16.9464 20.0981 17.5665ZM22.5738 16.6355C22.52 16.6645 22.4671 16.6933 22.4139 16.7226C23.0541 15.8384 23.5036 14.6664 23.2917 13.1844C23.166 11.5519 21.0649 6.84077 20.0981 5.65014V3.22485L24.5814 15.3754C23.9418 15.8879 23.233 16.2774 22.5738 16.6355ZM19.1196 5.64953C17.9764 6.90987 16.0006 11.6094 15.8715 13.1682C15.671 14.5903 16.0577 15.7359 16.6515 16.6177C16.6503 16.6171 16.6491 16.6162 16.6491 16.6162C15.9969 16.2612 15.2955 15.8751 14.6561 15.3699L19.1196 3.23586V5.64953ZM16.181 17.4754C17.153 18.0047 17.9923 18.4618 18.302 19.1461C18.7065 19.9502 18.8646 21.8554 18.7466 24.4247C17.578 23.7459 15.3823 22.3452 14.7537 21.2757C14.1746 20.2162 13.4912 17.1174 13.2842 15.4516C14.1678 16.3792 15.2249 16.9547 16.181 17.4754ZM18.8625 32.1403C17.6621 31.4407 15.3704 29.9755 14.6369 28.8185C14.0336 27.759 13.32 24.4317 13.1322 22.7235C14.0691 23.73 15.2074 24.3376 16.2342 24.8858C17.2285 25.4163 18.0865 25.8743 18.4142 26.5335C18.8206 27.3765 18.9802 29.4016 18.8625 32.1403ZM13.9028 21.7579C14.155 22.1872 14.6207 22.6715 15.1759 23.15C14.4868 22.6969 13.8297 22.1444 13.3181 21.394C13.2552 21.3026 13.0613 21.0247 12.7335 21.0247C12.5323 21.0247 12.3489 21.1332 12.2431 21.3157C11.7487 22.1651 12.9555 27.8428 13.7982 29.3224C14.1296 29.8458 14.7561 30.4473 15.4716 31.0261C14.5143 30.4632 13.5551 29.778 12.8506 28.765C12.787 28.6702 12.5929 28.3816 12.2596 28.3816C12.0596 28.3816 11.8774 28.4895 11.7722 28.6705C11.5527 29.0484 11.69 30.45 11.9862 32.0274L2.02367 25.0127L12.732 17.9221C13.0824 19.5215 13.5588 21.1295 13.9028 21.7579ZM12.6767 30.1021C13.6823 31.1826 14.9053 31.8467 16.0079 32.4451C17.0995 33.0377 18.0421 33.5498 18.4072 34.2794C18.82 35.1743 18.9823 37.3226 18.86 40.2227C17.5823 39.5033 15.0564 37.9317 14.3201 36.6557C13.6294 35.4452 12.8852 31.8883 12.6767 30.1021ZM19.1196 41.4522V47.2488L15.46 39.1816C16.872 40.2808 18.532 41.2195 19.1196 41.4522ZM20.0981 41.4669C20.1097 41.462 20.1216 41.4598 20.1326 41.454C20.2537 41.3916 22.1901 40.3857 23.8329 39.1324L20.0981 47.2738V41.4669ZM24.9709 36.6551C24.1384 37.9809 21.5782 39.5296 20.3524 40.2203C20.276 38.4933 20.2803 35.4715 20.8839 34.2784C21.2236 33.5367 22.1626 33.0227 23.2492 32.4274C24.3396 31.8305 25.5488 31.1689 26.5487 30.0917C26.3481 31.8831 25.5944 35.4559 24.9709 36.6551ZM27.439 28.6613C27.3332 28.4861 27.1529 28.3812 26.9575 28.3812C26.6245 28.3812 26.43 28.6699 26.3716 28.7576C25.7944 29.5856 25.052 30.1944 24.2805 30.6955C24.8168 30.2326 25.2721 29.755 25.5498 29.2955C26.2606 28.0018 27.5779 22.1572 27.0752 21.3072C26.97 21.1301 26.7896 21.0244 26.593 21.0244C26.2625 21.0244 26.0726 21.3072 26.0096 21.402C25.418 22.2926 24.601 22.9045 23.765 23.4029C24.4466 22.8678 25.0358 22.3076 25.3776 21.7735C25.3846 21.7634 25.3904 21.7527 25.3963 21.742C25.7409 21.1051 26.2172 19.4261 26.553 17.783L37.837 25.009L27.2299 32.1204C27.532 30.5103 27.6788 29.0582 27.439 28.6613ZM26.7468 16.7459C26.9621 15.4513 27.0443 14.3356 26.8407 13.9943C26.7355 13.8182 26.5557 13.713 26.3591 13.713C26.0267 13.713 25.8369 13.9998 25.7733 14.0958C25.6445 14.2918 25.5017 14.4698 25.3528 14.6398L21.156 3.26613L36.5852 23.0463L26.7468 16.7459ZM13.8801 14.6453C13.7245 14.4725 13.575 14.2921 13.4395 14.0928C13.3762 13.9989 13.1851 13.713 12.8546 13.713C12.6583 13.713 12.4794 13.8179 12.3752 13.9937C12.1682 14.3432 12.2764 15.5292 12.5241 16.8868L2.00349 23.8529L18.0687 3.25848L13.8801 14.6453ZM12.1673 33.3511C12.2009 33.3749 12.2376 33.3899 12.2749 33.404C12.6164 34.8866 13.0451 36.3108 13.4053 37.019C13.4059 37.0205 13.4068 37.0223 13.4074 37.0239L17.4633 45.9652L2.08513 26.2513L12.1673 33.3511ZM25.8405 37.1024L25.8411 37.1018C26.1683 36.4649 26.6074 34.9832 26.9596 33.4275C27.0232 33.4156 27.0856 33.396 27.1431 33.3575L36.466 27.1068L21.8011 45.9071L25.8405 37.1024Z" fill="white"></path>
  <path d="M7 60L19.4387 73L31 60" stroke="white" stroke-miterlimit="10" stroke-linecap="round" stroke-linejoin="round"></path>
</svg>
