<?xml version="1.0" encoding="UTF-8"?>
<svg xmlns="http://www.w3.org/2000/svg" width="37" height="37" viewBox="0 0 37 37" fill="none">
  <g clip-path="url(#clip0_515_15087)">
    <path fill-rule="evenodd" clip-rule="evenodd" d="M14.3367 3.6408C14.3368 3.41078 14.4283 3.19023 14.591 3.02763C14.7537 2.86502 14.9743 2.77366 15.2043 2.77362H15.2307C15.4607 2.77362 15.6813 2.86498 15.8439 3.02761C16.0065 3.19024 16.0979 3.41081 16.0979 3.6408C16.0979 3.8708 16.0065 4.09137 15.8439 4.254C15.6813 4.41663 15.4607 4.50799 15.2307 4.50799H15.2046C14.9746 4.50784 14.7541 4.41644 14.5915 4.25386C14.4288 4.09127 14.3373 3.87079 14.337 3.6408H14.3367ZM17.0834 3.6408C17.0835 3.41078 17.175 3.19023 17.3377 3.02763C17.5004 2.86502 17.721 2.77366 17.951 2.77362H21.8004C22.0304 2.77362 22.251 2.86498 22.4136 3.02761C22.5762 3.19024 22.6676 3.41081 22.6676 3.6408C22.6676 3.8708 22.5762 4.09137 22.4136 4.254C22.251 4.41663 22.0304 4.50799 21.8004 4.50799H17.9507C17.7207 4.50784 17.5002 4.41644 17.3375 4.25386C17.1749 4.09127 17.0834 3.87079 17.0831 3.6408H17.0834ZM10.2985 1.73364C10.0111 1.73399 9.73553 1.84829 9.53225 2.05149C9.32897 2.25469 9.21456 2.5302 9.2141 2.81763V31.786H27.7889V2.81777C27.7888 2.53051 27.6747 2.25503 27.4717 2.05179C27.2687 1.84856 26.9933 1.73419 26.7061 1.73379L10.2985 1.73364ZM26.7061 36.9993C27.4532 36.9982 28.1694 36.7009 28.6976 36.1726C29.2258 35.6442 29.523 34.928 29.524 34.1809V2.81763C29.523 2.07053 29.2258 1.3543 28.6976 0.825976C28.1694 0.297655 27.4532 0.000357434 26.7061 -0.000732422H10.2985C9.55117 1.31385e-05 8.83462 0.297149 8.30605 0.825499C7.77749 1.35385 7.48006 2.07027 7.479 2.81763V34.1809C7.48006 34.9283 7.77749 35.6447 8.30605 36.173C8.83462 36.7014 9.55117 36.9985 10.2985 36.9993H26.7061Z" fill="white"></path>
  </g>
  <defs>
    <clipPath id="clip0_515_15087">
      <rect width="37" height="37" fill="white"></rect>
    </clipPath>
  </defs>
</svg>
