<?xml version="1.0" encoding="UTF-8"?>
<svg xmlns="http://www.w3.org/2000/svg" width="45" height="27" viewBox="0 0 45 27" fill="none">
  <path d="M40.6299 0.76001H10.25C8.09395 0.76001 6.32995 2.52401 6.32995 4.68001V6.15001C6.32995 6.68901 6.77095 7.13001 7.30995 7.13001C7.84895 7.13001 8.28995 6.68901 8.28995 6.15001V4.68001C8.28995 4.48401 8.33895 4.28801 8.38795 4.09201L19.3639 13.5L8.38795 22.908C8.33895 22.712 8.28995 22.516 8.28995 22.32V20.85C8.28995 20.311 7.84895 19.87 7.30995 19.87C6.77095 19.87 6.32995 20.311 6.32995 20.85V22.32C6.32995 24.476 8.09395 26.24 10.25 26.24H40.6299C42.7859 26.24 44.5499 24.476 44.5499 22.32V4.68001C44.5499 2.52401 42.7859 0.76001 40.6299 0.76001ZM9.85795 2.76901C9.95595 2.72001 10.103 2.72001 10.25 2.72001H40.6299C40.777 2.72001 40.924 2.72001 41.0219 2.76901L26.077 15.558C25.6849 15.852 25.195 15.852 24.8029 15.558L9.85795 2.76901ZM40.6299 24.28H10.25C10.103 24.28 9.95595 24.28 9.85795 24.231L20.8829 14.774L23.5289 17.077C24.0679 17.567 24.754 17.812 25.44 17.812C26.1259 17.812 26.812 17.567 27.351 17.077L29.997 14.774L41.0219 24.231C40.924 24.28 40.777 24.28 40.6299 24.28ZM42.59 22.32C42.59 22.516 42.541 22.712 42.492 22.908L31.516 13.5L42.492 4.09201C42.541 4.28801 42.59 4.48401 42.59 4.68001V22.32ZM3.38995 11.05C3.38995 10.511 3.83095 10.07 4.36995 10.07H10.25C10.789 10.07 11.23 10.511 11.23 11.05C11.23 11.589 10.789 12.03 10.25 12.03H4.36995C3.83095 12.03 3.38995 11.589 3.38995 11.05ZM10.25 16.93H1.42995C0.890951 16.93 0.449951 16.489 0.449951 15.95C0.449951 15.411 0.890951 14.97 1.42995 14.97H10.25C10.789 14.97 11.23 15.411 11.23 15.95C11.23 16.489 10.789 16.93 10.25 16.93Z" fill="white"></path>
</svg>
