<?xml version="1.0" encoding="UTF-8"?>
<svg xmlns="http://www.w3.org/2000/svg" width="150" height="192" viewBox="0 0 150 192" fill="none">
  <path d="M149.705 97.0138C149.732 96.9704 149.749 96.9246 149.772 96.88C149.806 96.8189 149.841 96.7579 149.867 96.6945C149.877 96.671 149.882 96.6464 149.891 96.6229C149.899 96.6017 149.902 96.5794 149.909 96.5571C149.917 96.5372 149.922 96.5184 149.926 96.4984C149.942 96.4479 149.958 96.3986 149.967 96.3458C149.98 96.2777 149.982 96.2096 149.988 96.1426C149.993 96.0898 150 96.037 150 95.983C150 95.9207 149.991 95.8597 149.982 95.7986C149.975 95.7388 149.973 95.6789 149.96 95.6202C149.947 95.5626 149.929 95.5086 149.911 95.4523C149.902 95.4229 149.894 95.3947 149.885 95.3666C149.875 95.3349 149.868 95.3032 149.854 95.2715C149.822 95.1975 149.78 95.1282 149.739 95.0578C149.719 95.0237 149.708 94.9862 149.685 94.9545C149.683 94.9521 149.681 94.9497 149.677 94.9474C149.663 94.9227 149.641 94.9004 149.622 94.8758C149.614 94.8664 149.612 94.8546 149.604 94.8453L76.4761 0.71856C76.4633 0.700948 76.4446 0.690381 76.4317 0.67277C76.3931 0.628153 76.3569 0.583536 76.3148 0.543616C76.2762 0.50487 76.2352 0.469647 76.1908 0.434424C76.1838 0.428553 76.1756 0.421508 76.1686 0.414463C76.1253 0.37924 76.0832 0.34519 76.0376 0.314663C75.9885 0.284136 75.9405 0.257131 75.8891 0.228953C75.8306 0.197251 75.771 0.166725 75.7113 0.140894C75.6891 0.131501 75.6704 0.117411 75.6458 0.109192C75.6143 0.0974512 75.5815 0.0939289 75.5476 0.084536C75.4868 0.064576 75.4237 0.0481385 75.3605 0.0352232C75.2985 0.023482 75.24 0.0152629 75.1827 0.00939226C75.1219 0.00352167 75.0635 0 75.0003 0C74.9395 0 74.8775 0.00352167 74.8155 0.00939226C74.7571 0.0152629 74.7009 0.0234816 74.6425 0.0340486C74.577 0.0469639 74.515 0.0634014 74.4507 0.0833614C74.4191 0.0927543 74.3875 0.0962777 74.3559 0.108019C74.3337 0.116238 74.315 0.130327 74.2928 0.138546C74.2285 0.164377 74.1688 0.194903 74.1104 0.227778C74.0612 0.254783 74.0121 0.280614 73.9665 0.312315C73.9174 0.344016 73.873 0.37924 73.8297 0.414463C73.8227 0.420334 73.818 0.426205 73.8098 0.432075C73.7665 0.467299 73.7244 0.502522 73.6859 0.541268C73.6449 0.583536 73.6063 0.6305 73.5666 0.676291C73.5537 0.690381 73.5397 0.699774 73.528 0.713864L0.394686 94.8406C-0.131562 95.5204 -0.131562 96.4726 0.394686 97.1512L73.528 191.278C73.5397 191.293 73.5537 191.303 73.5666 191.317C73.5666 191.318 73.5689 191.32 73.5713 191.321C73.5841 191.338 73.5935 191.357 73.6075 191.373C73.6566 191.426 73.7128 191.472 73.7665 191.52C73.7946 191.547 73.825 191.576 73.8566 191.601C73.8905 191.627 73.9279 191.651 73.9642 191.676C74.0004 191.701 74.039 191.722 74.0788 191.744C74.0858 191.748 74.0905 191.751 74.0987 191.755C74.1326 191.775 74.1665 191.799 74.2027 191.817C74.2109 191.82 74.2156 191.825 74.2238 191.829C74.2799 191.854 74.3384 191.866 74.3945 191.886C74.4413 191.901 74.4822 191.919 74.5278 191.932C74.5512 191.938 74.5688 191.947 74.5922 191.952C74.7278 191.982 74.867 192 75.0038 192H75.0061C75.1406 192 75.2763 191.982 75.4131 191.952C75.4377 191.947 75.4599 191.937 75.4845 191.931C75.5266 191.919 75.5675 191.901 75.6084 191.887C75.6645 191.867 75.7242 191.856 75.7792 191.831C75.7873 191.826 75.7944 191.82 75.8037 191.816C75.8446 191.796 75.8832 191.769 75.9253 191.745C75.9277 191.743 75.9312 191.742 75.9335 191.741C75.9674 191.719 76.0049 191.702 76.0376 191.678C76.0739 191.654 76.1113 191.63 76.1452 191.604C76.1838 191.574 76.2189 191.54 76.2551 191.507C76.3042 191.463 76.3534 191.422 76.3966 191.375C76.4118 191.36 76.4212 191.341 76.4329 191.326L76.4352 191.325C76.4504 191.307 76.4691 191.294 76.482 191.276L149.609 97.15C149.62 97.1383 149.622 97.123 149.633 97.1101C149.657 97.0784 149.683 97.0491 149.706 97.0162C149.701 97.0185 149.703 97.0174 149.705 97.0138ZM78.2642 93.7733C78.0549 88.39 78.0654 77.6139 80.009 73.4916C81.2311 70.9426 84.4248 69.199 88.125 67.1807C91.8122 65.1682 95.8912 62.9421 99.2381 59.3352C98.5294 65.6907 96.0561 77.5176 93.8763 81.6435C91.8496 84.7584 86.1041 89.2107 78.2642 93.7733ZM88.3448 95.572C92.2577 93.4927 96.5859 91.1914 100.112 87.4131C99.3469 94.0292 96.6747 106.611 94.482 110.621C92.4998 113.911 86.524 118.611 78.2829 123.404C78.0771 117.928 77.9929 106.374 80.0102 101.889C81.2217 99.3586 84.5231 97.6044 88.3448 95.572ZM73.1269 67.5517C69.463 65.3185 63.1223 60.0726 64.4134 51.0389C64.4204 50.9966 64.4262 50.9555 64.4286 50.9133C64.7431 46.7393 69.4724 35.0415 73.1269 28.3984V67.5517ZM76.8691 67.4554V28.8305C80.3973 35.6239 85.0517 46.9765 85.3662 51.0377C86.6035 59.7356 80.5271 65.0743 76.8691 67.4554ZM86.338 63.8802C86.1322 63.9918 85.9299 64.1021 85.7264 64.2149C88.1752 60.8193 89.8943 56.3189 89.0839 50.628C88.6032 44.3594 80.5668 26.2685 76.8691 21.6965V12.3834L94.0166 59.0417C91.5701 61.0095 88.8593 62.5053 86.338 63.8802ZM73.1269 21.6942C68.7543 26.5339 61.1974 44.5801 60.7039 50.5657C59.9367 56.0266 61.4161 60.426 63.6871 63.8121C63.6825 63.8098 63.6801 63.8086 63.6778 63.8063C61.1834 62.4431 58.5007 60.9602 56.0554 59.0206L73.1269 12.4257V21.6942ZM61.8874 67.1055C65.605 69.1379 68.8151 70.8932 69.9998 73.5209C71.547 76.6088 72.1516 83.9248 71.7001 93.7909C67.2305 91.1843 58.8328 85.8057 56.4284 81.6987C54.2135 77.6303 51.5998 65.7306 50.8081 59.334C54.1878 62.8963 58.2305 65.106 61.8874 67.1055ZM72.1434 123.419C67.5521 120.732 58.7872 115.106 55.9817 110.663C53.6744 106.595 50.9449 93.8179 50.2269 87.2581C53.81 91.1233 58.1639 93.4563 62.0909 95.5615C65.8939 97.5986 69.1753 99.3574 70.429 101.889C71.9831 105.126 72.5936 112.902 72.1434 123.419ZM53.1739 83.5502C54.1387 85.1987 55.9197 87.0585 58.0434 88.896C55.4075 87.156 52.8944 85.0343 50.9379 82.153C50.697 81.802 49.9556 80.7347 48.7019 80.7347C47.9324 80.7347 47.2308 81.1515 46.8261 81.8525C44.9352 85.1142 49.5509 106.916 52.7739 112.598C54.0416 114.608 56.4378 116.918 59.1743 119.14C55.5128 116.979 51.8442 114.347 49.1498 110.457C48.9066 110.094 48.164 108.985 46.8893 108.985C46.1245 108.985 45.4275 109.4 45.0252 110.095C44.1856 111.546 44.7106 116.928 45.8438 122.985L7.73995 96.0487L48.6961 68.8209C50.0363 74.9627 51.8583 81.1374 53.1739 83.5502ZM48.4844 115.592C52.3307 119.741 57.0085 122.291 61.2255 124.589C65.4004 126.865 69.0058 128.831 70.4021 131.633C71.9808 135.069 72.6018 143.319 72.134 154.455C67.2469 151.693 57.5862 145.658 54.7701 140.758C52.1284 136.11 49.282 122.451 48.4844 115.592ZM73.1269 159.176V181.435L59.1298 150.457C64.5303 154.678 70.8792 158.283 73.1269 159.176ZM76.8691 159.233C76.9135 159.214 76.9591 159.206 77.0012 159.183C77.4643 158.944 84.8704 155.081 91.1538 150.268L76.8691 181.532V159.233ZM95.5064 140.756C92.3221 145.847 82.5303 151.793 77.842 154.446C77.5497 147.814 77.5661 136.211 79.8745 131.629C81.1738 128.781 84.7652 126.807 88.9213 124.521C93.0916 122.229 97.7167 119.688 101.541 115.552C100.774 122.431 97.8909 136.151 95.5064 140.756ZM104.946 110.059C104.542 109.387 103.852 108.984 103.104 108.984C101.831 108.984 101.087 110.092 100.864 110.429C98.6557 113.609 95.8163 115.947 92.8658 117.871C94.917 116.093 96.6583 114.259 97.7202 112.495C100.439 107.527 105.477 85.0836 103.555 81.8196C103.152 81.1398 102.462 80.7335 101.71 80.7335C100.446 80.7335 99.7199 81.8196 99.479 82.1836C97.2162 85.6038 94.0914 87.9532 90.8942 89.867C93.5008 87.8123 95.7544 85.6613 97.0618 83.6101C97.0887 83.5714 97.1109 83.5303 97.1331 83.4892C98.4511 81.0435 100.273 74.5964 101.557 68.2867L144.715 96.0346L104.146 123.342C105.302 117.159 105.863 111.583 104.946 110.059ZM102.299 64.3041C103.122 59.3329 103.436 55.0485 102.658 53.7382C102.255 53.0619 101.568 52.658 100.816 52.658C99.5445 52.658 98.8183 53.7593 98.575 54.128C98.0827 54.8806 97.5366 55.564 96.9671 56.2168L80.9153 12.5419L139.928 88.498L102.299 64.3041ZM53.0873 56.2379C52.4921 55.5745 51.9202 54.8818 51.4022 54.1163C51.1601 53.7558 50.4292 52.658 49.165 52.658C48.4142 52.658 47.7301 53.0607 47.3313 53.7359C46.5396 55.0779 46.9536 59.6323 47.9009 64.8454L7.66275 91.5953L69.1075 12.5126L53.0873 56.2379ZM46.5361 128.068C46.6648 128.16 46.8051 128.217 46.9478 128.271C48.254 133.965 49.8936 139.434 51.2712 142.153C51.2735 142.159 51.277 142.166 51.2794 142.172L66.792 176.506L7.97499 100.805L46.5361 128.068ZM98.8323 142.473C98.8347 142.472 98.8347 142.472 98.8347 142.471C100.086 140.025 101.765 134.336 103.112 128.362C103.356 128.316 103.594 128.241 103.814 128.093L139.472 104.09L83.3828 176.283L98.8323 142.473Z" fill="white"></path>
</svg>
