<?xml version="1.0" encoding="UTF-8"?>
<svg xmlns="http://www.w3.org/2000/svg" width="40" height="51" viewBox="0 0 40 51" fill="none">
  <path d="M39.1417 25.3265C39.1487 25.3152 39.153 25.3033 39.1591 25.2917C39.168 25.2758 39.1772 25.2599 39.1839 25.2434C39.1866 25.2372 39.1879 25.2308 39.1903 25.2247C39.1925 25.2192 39.1931 25.2134 39.1949 25.2076C39.197 25.2024 39.1983 25.1975 39.1995 25.1923C39.2035 25.1791 39.2077 25.1663 39.2102 25.1525C39.2136 25.1348 39.2142 25.1171 39.2157 25.0996C39.2169 25.0859 39.2187 25.0721 39.2187 25.0581C39.2187 25.0419 39.2163 25.026 39.2142 25.0101C39.2123 24.9945 39.2117 24.9789 39.2084 24.9636C39.205 24.9486 39.2001 24.9345 39.1955 24.9199C39.1931 24.9122 39.1909 24.9049 39.1888 24.8975C39.186 24.8893 39.1842 24.881 39.1805 24.8728C39.1723 24.8535 39.1613 24.8355 39.1506 24.8171C39.1454 24.8083 39.1423 24.7985 39.1365 24.7902C39.1365 24.7902 39.1353 24.789 39.1344 24.7884C39.1307 24.782 39.1249 24.7762 39.12 24.7697C39.1178 24.7673 39.1172 24.7642 39.1151 24.7618L19.9953 0.249625C19.992 0.245039 19.9871 0.242287 19.9837 0.2377C19.9736 0.226082 19.9641 0.214462 19.9531 0.204067C19.943 0.193977 19.9323 0.184804 19.9207 0.175631C19.9189 0.174102 19.9167 0.172268 19.9149 0.170433C19.9036 0.16126 19.8926 0.152393 19.8807 0.144444C19.8678 0.136494 19.8553 0.129461 19.8418 0.122123C19.8265 0.113868 19.8109 0.105918 19.7954 0.0991912C19.7895 0.0967451 19.7847 0.0930758 19.7782 0.0909355C19.77 0.0878779 19.7614 0.0869607 19.7525 0.0845146C19.7366 0.0793167 19.7201 0.0750361 19.7036 0.0716727C19.6874 0.0686151 19.6721 0.0664747 19.6572 0.0649459C19.6413 0.0634171 19.626 0.0625 19.6095 0.0625C19.5936 0.0625 19.5773 0.0634171 19.5611 0.0649459C19.5459 0.0664747 19.5312 0.068615 19.5159 0.0713668C19.4988 0.0747302 19.4826 0.0790108 19.4657 0.0842087C19.4575 0.0866548 19.4492 0.0875723 19.441 0.0906299C19.4352 0.0927702 19.4303 0.0964394 19.4245 0.0985797C19.4076 0.105306 19.3921 0.113256 19.3768 0.121817C19.3639 0.12885 19.3511 0.135577 19.3392 0.143832C19.3263 0.152088 19.3147 0.16126 19.3034 0.170433C19.3016 0.171962 19.3003 0.173491 19.2982 0.17502C19.2869 0.184192 19.2759 0.193365 19.2658 0.203455C19.2551 0.214463 19.245 0.226693 19.2346 0.238617C19.2312 0.242287 19.2276 0.244733 19.2245 0.248402L0.103194 24.7606C-0.034398 24.9376 -0.034398 25.1856 0.103194 25.3623L19.2245 49.8745C19.2276 49.8784 19.2312 49.8809 19.2346 49.8845L19.2358 49.8858C19.2392 49.8901 19.2416 49.8949 19.2453 49.8992C19.2581 49.913 19.2728 49.9249 19.2869 49.9374C19.2942 49.9445 19.3022 49.9521 19.3104 49.9585C19.3193 49.9653 19.3291 49.9717 19.3385 49.9781C19.348 49.9845 19.3581 49.99 19.3685 49.9958C19.3703 49.9968 19.3716 49.9977 19.3737 49.9986C19.3826 50.0038 19.3914 50.0102 19.4009 50.0148C19.4031 50.0157 19.4043 50.0169 19.4064 50.0179C19.4211 50.0246 19.4364 50.0276 19.4511 50.0328C19.4633 50.0368 19.474 50.0414 19.4859 50.0448C19.492 50.0463 19.4966 50.0487 19.5027 50.05C19.5382 50.0579 19.5746 50.0625 19.6104 50.0625H19.611C19.6461 50.0625 19.6816 50.0579 19.7174 50.05C19.7238 50.0487 19.7296 50.046 19.736 50.0445C19.747 50.0414 19.7577 50.0368 19.7684 50.0331C19.7831 50.0279 19.7987 50.0249 19.8131 50.0185C19.8152 50.0172 19.8171 50.0157 19.8195 50.0145C19.8302 50.0093 19.8403 50.0023 19.8513 49.9961L19.8534 49.9949C19.8623 49.9894 19.8721 49.9848 19.8807 49.9787C19.8901 49.9723 19.8999 49.9662 19.9088 49.9595C19.9189 49.9515 19.9281 49.9426 19.9375 49.9341C19.9504 49.9228 19.9632 49.9121 19.9745 49.8998C19.9785 49.8959 19.9809 49.891 19.984 49.887L19.9846 49.8867C19.9886 49.8821 19.9935 49.8787 19.9969 49.8738L39.1166 25.362C39.1194 25.3589 39.12 25.355 39.1227 25.3516C39.1292 25.3433 39.1359 25.3357 39.142 25.3271C39.1405 25.3277 39.1411 25.3274 39.1417 25.3265ZM20.4628 24.4826C20.4081 23.0807 20.4108 20.2745 20.919 19.2009C21.2385 18.5371 22.0736 18.0831 23.041 17.5575C24.0051 17.0334 25.0715 16.4537 25.9466 15.5144C25.7613 17.1695 25.1147 20.2494 24.5447 21.3238C24.0148 22.135 22.5126 23.2944 20.4628 24.4826ZM23.0985 24.951C24.1216 24.4095 25.2532 23.8103 26.175 22.8263C25.9751 24.5493 25.2764 27.8258 24.7031 28.87C24.1848 29.7267 22.6224 30.9507 20.4677 32.1991C20.4139 30.773 20.3919 27.764 20.9193 26.596C21.2361 25.9371 22.0993 25.4803 23.0985 24.951ZM19.1196 17.6541C18.1617 17.0725 16.5038 15.7064 16.8414 13.3539C16.8432 13.3429 16.8448 13.3322 16.8454 13.3212C16.9276 12.2342 18.1641 9.1879 19.1196 7.45791V17.6541ZM20.0981 17.629V7.57043C21.0205 9.33956 22.2375 12.296 22.3197 13.3536C22.6432 15.6186 21.0545 17.0089 20.0981 17.629ZM22.5738 16.698C22.52 16.727 22.4671 16.7558 22.4139 16.7851C23.0541 15.9009 23.5036 14.7289 23.2917 13.2469C23.166 11.6144 21.0649 6.90327 20.0981 5.71264V3.28735L24.5814 15.4379C23.9418 15.9504 23.233 16.3399 22.5738 16.698ZM19.1196 5.71203C17.9764 6.97237 16.0006 11.6719 15.8715 13.2307C15.671 14.6528 16.0577 15.7984 16.6515 16.6802C16.6503 16.6796 16.6491 16.6787 16.6491 16.6787C15.9969 16.3237 15.2955 15.9376 14.6561 15.4324L19.1196 3.29836V5.71203ZM16.181 17.5379C17.153 18.0672 17.9923 18.5243 18.302 19.2086C18.7065 20.0127 18.8646 21.9179 18.7466 24.4872C17.578 23.8084 15.3823 22.4077 14.7537 21.3382C14.1746 20.2787 13.4912 17.1799 13.2842 15.5141C14.1678 16.4417 15.2249 17.0172 16.181 17.5379ZM18.8625 32.2028C17.6621 31.5032 15.3704 30.038 14.6369 28.881C14.0336 27.8215 13.32 24.4942 13.1322 22.786C14.0691 23.7925 15.2074 24.4001 16.2342 24.9483C17.2285 25.4788 18.0865 25.9368 18.4142 26.596C18.8206 27.439 18.9802 29.4641 18.8625 32.2028ZM13.9028 21.8204C14.155 22.2497 14.6207 22.734 15.1759 23.2125C14.4868 22.7594 13.8297 22.2069 13.3181 21.4565C13.2552 21.3651 13.0613 21.0872 12.7335 21.0872C12.5323 21.0872 12.3489 21.1957 12.2431 21.3782C11.7487 22.2276 12.9555 27.9053 13.7982 29.3849C14.1296 29.9083 14.7561 30.5098 15.4716 31.0886C14.5143 30.5257 13.5551 29.8405 12.8506 28.8275C12.787 28.7327 12.5929 28.4441 12.2596 28.4441C12.0596 28.4441 11.8774 28.552 11.7722 28.733C11.5527 29.1109 11.69 30.5125 11.9862 32.0899L2.02367 25.0752L12.732 17.9846C13.0824 19.584 13.5588 21.192 13.9028 21.8204ZM12.6767 30.1646C13.6823 31.2451 14.9053 31.9092 16.0079 32.5076C17.0995 33.1002 18.0421 33.6123 18.4072 34.3419C18.82 35.2368 18.9823 37.3851 18.86 40.2852C17.5823 39.5658 15.0564 37.9942 14.3201 36.7182C13.6294 35.5077 12.8852 31.9508 12.6767 30.1646ZM19.1196 41.5147V47.3113L15.46 39.2441C16.872 40.3433 18.532 41.282 19.1196 41.5147ZM20.0981 41.5294C20.1097 41.5245 20.1216 41.5223 20.1326 41.5165C20.2537 41.4541 22.1901 40.4482 23.8329 39.1949L20.0981 47.3363V41.5294ZM24.9709 36.7176C24.1384 38.0434 21.5782 39.5921 20.3524 40.2828C20.276 38.5558 20.2803 35.534 20.8839 34.3409C21.2236 33.5992 22.1626 33.0852 23.2492 32.4899C24.3396 31.893 25.5488 31.2314 26.5487 30.1542C26.3481 31.9456 25.5944 35.5184 24.9709 36.7176ZM27.439 28.7238C27.3332 28.5486 27.1529 28.4437 26.9575 28.4437C26.6245 28.4437 26.43 28.7324 26.3716 28.8201C25.7944 29.6481 25.052 30.2569 24.2805 30.758C24.8168 30.2951 25.2721 29.8175 25.5498 29.358C26.2606 28.0643 27.5779 22.2197 27.0752 21.3697C26.97 21.1926 26.7896 21.0869 26.593 21.0869C26.2625 21.0869 26.0726 21.3697 26.0096 21.4645C25.418 22.3551 24.601 22.967 23.765 23.4654C24.4466 22.9303 25.0358 22.3701 25.3776 21.836C25.3846 21.8259 25.3904 21.8152 25.3963 21.8045C25.7409 21.1676 26.2172 19.4886 26.553 17.8455L37.837 25.0715L27.2299 32.1829C27.532 30.5728 27.6788 29.1207 27.439 28.7238ZM26.7468 16.8084C26.9621 15.5138 27.0443 14.3981 26.8407 14.0568C26.7355 13.8807 26.5557 13.7755 26.3591 13.7755C26.0267 13.7755 25.8369 14.0623 25.7733 14.1583C25.6445 14.3543 25.5017 14.5323 25.3528 14.7023L21.156 3.32863L36.5852 23.1088L26.7468 16.8084ZM13.8801 14.7078C13.7245 14.535 13.575 14.3546 13.4395 14.1553C13.3762 14.0614 13.1851 13.7755 12.8546 13.7755C12.6583 13.7755 12.4794 13.8804 12.3752 14.0562C12.1682 14.4057 12.2764 15.5917 12.5241 16.9493L2.00349 23.9154L18.0687 3.32098L13.8801 14.7078ZM12.1673 33.4136C12.2009 33.4374 12.2376 33.4524 12.2749 33.4665C12.6164 34.9491 13.0451 36.3733 13.4053 37.0815C13.4059 37.083 13.4068 37.0848 13.4074 37.0864L17.4633 46.0277L2.08513 26.3138L12.1673 33.4136ZM25.8405 37.1649L25.8411 37.1643C26.1683 36.5274 26.6074 35.0457 26.9596 33.49C27.0232 33.4781 27.0856 33.4585 27.1431 33.42L36.466 27.1693L21.8011 45.9696L25.8405 37.1649Z" fill="white"></path>
</svg>
