<?xml version="1.0" encoding="UTF-8"?>
<svg xmlns="http://www.w3.org/2000/svg" width="102" height="130" viewBox="0 0 102 130" fill="none">
  <path d="M100.99 65.6154C101.008 65.586 101.019 65.555 101.035 65.5248C101.058 65.4836 101.082 65.4423 101.099 65.3994C101.106 65.3835 101.109 65.3668 101.116 65.3509C101.121 65.3366 101.123 65.3216 101.128 65.3065C101.133 65.293 101.136 65.2803 101.139 65.2668C101.15 65.2326 101.161 65.1993 101.167 65.1635C101.176 65.1175 101.177 65.0714 101.181 65.0261C101.184 64.9904 101.189 64.9547 101.189 64.9181C101.189 64.8761 101.183 64.8348 101.177 64.7935C101.173 64.753 101.171 64.7125 101.162 64.6728C101.154 64.6339 101.141 64.5973 101.129 64.5592C101.123 64.5394 101.117 64.5203 101.112 64.5012C101.105 64.4798 101.1 64.4584 101.09 64.4369C101.069 64.3869 101.041 64.34 101.013 64.2924C101 64.2694 100.992 64.2439 100.977 64.2225C100.975 64.2209 100.974 64.2193 100.971 64.2177C100.962 64.2011 100.947 64.186 100.934 64.1693C100.929 64.1629 100.927 64.155 100.922 64.1487L51.5903 0.485998C51.5816 0.474087 51.569 0.46694 51.5604 0.455028C51.5343 0.424852 51.5099 0.394675 51.4815 0.367675C51.4554 0.341469 51.4278 0.317646 51.3978 0.293823C51.3931 0.289852 51.3876 0.285087 51.3828 0.280323C51.3537 0.256499 51.3253 0.23347 51.2945 0.212823C51.2614 0.192176 51.229 0.173911 51.1943 0.154852C51.1549 0.133411 51.1146 0.112764 51.0744 0.0952938C51.0594 0.0889408 51.0468 0.0794111 51.0302 0.0738523C51.0089 0.0659112 50.9868 0.0635289 50.9639 0.057176C50.9229 0.043676 50.8803 0.0325585 50.8377 0.0238233C50.7959 0.0158821 50.7565 0.010323 50.7178 0.00635246C50.6768 0.00238189 50.6373 0 50.5947 0C50.5537 0 50.5119 0.00238189 50.4701 0.00635246C50.4306 0.010323 50.3928 0.0158818 50.3533 0.0230288C50.3092 0.0317641 50.2673 0.0428816 50.224 0.0563815C50.2027 0.0627344 50.1814 0.0651175 50.16 0.0730586C50.1451 0.0786174 50.1324 0.0881468 50.1175 0.0937057C50.0741 0.111176 50.0338 0.131823 49.9944 0.154058C49.9613 0.172322 49.9281 0.189793 49.8974 0.211235C49.8642 0.232676 49.8342 0.256499 49.805 0.280323C49.8003 0.284293 49.7972 0.288264 49.7916 0.292235C49.7625 0.316058 49.734 0.339881 49.708 0.366087C49.6804 0.394675 49.6544 0.426439 49.6275 0.45741C49.6189 0.466939 49.6094 0.473293 49.6015 0.482822L0.266253 64.1455C-0.0887509 64.6053 -0.0887509 65.2493 0.266253 65.7083L49.6015 129.371C49.6094 129.381 49.6189 129.388 49.6275 129.397C49.6275 129.398 49.6291 129.4 49.6307 129.4C49.6394 129.411 49.6457 129.424 49.6552 129.435C49.6883 129.471 49.7262 129.502 49.7624 129.535C49.7814 129.553 49.8019 129.573 49.8232 129.589C49.8461 129.607 49.8713 129.623 49.8958 129.64C49.9202 129.657 49.9463 129.671 49.9731 129.686C49.9778 129.689 49.981 129.691 49.9865 129.693C50.0094 129.707 50.0323 129.724 50.0567 129.735C50.0622 129.738 50.0654 129.741 50.0709 129.743C50.1088 129.761 50.1482 129.769 50.1861 129.782C50.2176 129.793 50.2453 129.805 50.276 129.813C50.2918 129.817 50.3036 129.824 50.3194 129.827C50.4109 129.847 50.5048 129.859 50.5971 129.859H50.5987C50.6894 129.859 50.7809 129.847 50.8732 129.827C50.8898 129.824 50.9048 129.816 50.9213 129.812C50.9497 129.805 50.9773 129.793 51.005 129.783C51.0428 129.77 51.0831 129.762 51.1201 129.745C51.1257 129.742 51.1304 129.738 51.1367 129.735C51.1643 129.721 51.1904 129.703 51.2188 129.687C51.2203 129.685 51.2227 129.685 51.2243 129.684C51.2472 129.67 51.2724 129.658 51.2945 129.642C51.3189 129.625 51.3442 129.609 51.3671 129.592C51.3931 129.571 51.4168 129.548 51.4412 129.526C51.4744 129.496 51.5075 129.469 51.5367 129.437C51.5469 129.427 51.5532 129.414 51.5611 129.404L51.5627 129.403C51.573 129.391 51.5856 129.382 51.5943 129.369L100.926 65.7075C100.933 65.6996 100.934 65.6892 100.941 65.6805C100.958 65.6591 100.975 65.6392 100.991 65.617C100.987 65.6186 100.989 65.6178 100.99 65.6154ZM52.7966 63.4236C52.6553 59.7826 52.6624 52.4942 53.9736 49.7061C54.798 47.982 56.9525 46.8028 59.4485 45.4377C61.9359 44.0766 64.6876 42.5709 66.9454 40.1314C66.4674 44.43 64.7988 52.4291 63.3283 55.2196C61.9612 57.3264 58.0853 60.3377 52.7966 63.4236ZM59.5968 64.6402C62.2365 63.2338 65.1562 61.6774 67.5347 59.1219C67.0188 63.5967 65.2161 72.1065 63.737 74.8184C62.3998 77.0435 58.3685 80.2223 52.8092 83.4647C52.6703 79.761 52.6135 71.9461 53.9744 68.9125C54.7917 67.2012 57.0187 66.0148 59.5968 64.6402ZM49.3309 45.6886C46.8593 44.1782 42.5819 40.6301 43.4528 34.5202C43.4576 34.4916 43.4615 34.4638 43.4631 34.4352C43.6753 31.6121 46.8656 23.7004 49.3309 19.2073V45.6886ZM51.8554 45.6235V19.4995C54.2355 24.0943 57.3753 31.7726 57.5875 34.5194C58.4222 40.4022 54.3231 44.0131 51.8554 45.6235ZM58.2431 43.2054C58.1042 43.2809 57.9678 43.3555 57.8305 43.4318C59.4824 41.1352 60.6421 38.0913 60.0954 34.2423C59.7712 30.0025 54.3499 17.7667 51.8554 14.6745V8.37554L63.423 39.9329C61.7726 41.2638 59.944 42.2755 58.2431 43.2054ZM49.3309 14.6729C46.3812 17.9462 41.2834 30.1518 40.9505 34.2002C40.433 37.8936 41.4309 40.8692 42.9629 43.1594C42.9598 43.1578 42.9582 43.157 42.9566 43.1554C41.2739 42.2334 39.4642 41.2305 37.8146 39.9186L49.3309 8.40412V14.6729ZM41.7488 45.3869C44.2567 46.7615 46.4223 47.9487 47.2214 49.7259C48.2651 51.8144 48.673 56.7626 48.3685 63.4355C45.3533 61.6726 39.6882 58.0348 38.0663 55.2569C36.5721 52.5053 34.8089 44.457 34.2748 40.1306C36.5547 42.54 39.2819 44.0345 41.7488 45.3869ZM48.6675 83.4742C45.5702 81.6573 39.6575 77.8519 37.7649 74.847C36.2084 72.0954 34.3671 63.4538 33.8827 59.0171C36.2999 61.6313 39.237 63.2092 41.8861 64.6331C44.4516 66.0108 46.6652 67.2004 47.5109 68.9125C48.5594 71.1019 48.9712 76.3614 48.6675 83.4742ZM35.8708 56.5093C36.5216 57.6242 37.7231 58.8821 39.1557 60.1249C37.3776 58.948 35.6822 57.513 34.3624 55.5643C34.1999 55.3268 33.6997 54.605 32.854 54.605C32.3349 54.605 31.8616 54.8869 31.5886 55.361C30.313 57.567 33.4268 72.3129 35.601 76.1557C36.4561 77.5152 38.0726 79.0772 39.9186 80.5805C37.4486 79.1185 34.9738 77.3389 33.1562 74.708C32.9921 74.4618 32.4911 73.7122 31.6312 73.7122C31.1153 73.7122 30.6451 73.9925 30.3737 74.4626C29.8073 75.4441 30.1615 79.0844 30.926 83.1812L5.22132 64.9626L32.8501 46.5471C33.7541 50.7011 34.9833 54.8773 35.8708 56.5093ZM32.7073 78.1807C35.302 80.9871 38.4576 82.7119 41.3023 84.266C44.1187 85.805 46.5508 87.1351 47.4928 89.0299C48.5578 91.3542 48.9767 96.9337 48.6612 104.466C45.3643 102.597 38.8473 98.5156 36.9476 95.2017C35.1655 92.0578 33.2453 82.8199 32.7073 78.1807ZM49.3309 107.659V122.714L39.8886 101.762C43.5317 104.617 47.8147 107.055 49.3309 107.659ZM51.8554 107.697C51.8854 107.684 51.9161 107.679 51.9445 107.664C52.2569 107.502 57.253 104.889 61.4918 101.634L51.8554 122.779V107.697ZM64.428 95.2002C62.2799 98.6434 55.6744 102.666 52.5118 104.46C52.3145 99.9744 52.3256 92.1261 53.8829 89.0275C54.7593 87.101 57.182 85.7661 59.9858 84.2199C62.799 82.6698 65.9191 80.9513 68.4988 78.1537C67.9812 82.8064 66.0366 92.0856 64.428 95.2002ZM70.796 74.4388C70.5231 73.9838 70.0576 73.7114 69.5535 73.7114C68.6944 73.7114 68.1927 74.461 68.042 74.6889C66.5525 76.8394 64.6371 78.4205 62.6467 79.722C64.0304 78.5198 65.2051 77.2793 65.9214 76.0858C67.7556 72.7259 71.1542 57.5464 69.8572 55.3387C69.5859 54.8789 69.1204 54.6042 68.6131 54.6042C67.7603 54.6042 67.2704 55.3387 67.1079 55.5849C65.5814 57.8982 63.4735 59.4872 61.3166 60.7816C63.0751 59.3919 64.5953 57.9371 65.4773 56.5498C65.4954 56.5236 65.5104 56.4958 65.5254 56.468C66.4145 54.8138 67.6436 50.4533 68.5098 46.1858L97.6241 64.9531L70.2564 83.4226C71.0358 79.2408 71.4145 75.4696 70.796 74.4388ZM69.01 43.4921C69.5654 40.1298 69.7776 37.2321 69.2522 36.3459C68.9808 35.8885 68.5169 35.6153 68.0096 35.6153C67.1521 35.6153 66.6622 36.3602 66.4981 36.6095C66.166 37.1185 65.7976 37.5807 65.4134 38.0222L54.585 8.48274L94.3943 59.8557L69.01 43.4921ZM35.8124 38.0365C35.4108 37.5879 35.0251 37.1193 34.6756 36.6016C34.5123 36.3578 34.0192 35.6153 33.1664 35.6153C32.6599 35.6153 32.1984 35.8877 31.9294 36.3443C31.3953 37.252 31.6746 40.3323 32.3136 43.8582L5.16925 61.9505L46.6195 8.46289L35.8124 38.0365ZM31.393 86.6189C31.4798 86.6809 31.5744 86.7198 31.6707 86.7563C32.5519 90.607 33.6579 94.306 34.5872 96.1451C34.5888 96.1491 34.5912 96.1539 34.5927 96.1579L45.0575 119.38L5.37988 68.1796L31.393 86.6189ZM66.6717 96.3619C66.6732 96.3612 66.6732 96.3612 66.6732 96.3604C67.5174 94.7062 68.6502 90.8579 69.559 86.8175C69.7231 86.7865 69.8841 86.7357 70.0324 86.6356L94.0866 70.4015L56.2495 119.229L66.6717 96.3619Z" fill="white"></path>
</svg>
